<svg width="1024" height="132" viewBox="0 0 1024 132" fill="none" xmlns="http://www.w3.org/2000/svg">
<g clip-path="url(#clip0_20_4)">
<path d="M26.2564 26.2566V52.5131H111.59C126.09 52.5131 137.846 64.2695 137.846 78.7697V105.026C137.846 119.533 126.09 131.283 111.59 131.283H0V105.026H111.59V78.7697H26.2564C11.7563 78.7697 0 67.0199 0 52.5131V26.2566C0 11.7564 11.7563 0 26.2564 0H137.846V26.2566H26.2564Z" fill="#F69000"/>
<path d="M557.949 26.2566V52.5131H669.539V78.7697H557.949V105.026H669.539V131.283H557.949C549.606 131.283 542.169 127.39 537.364 121.325C533.813 116.848 531.692 111.183 531.692 105.026V26.2566C531.692 19.9944 533.885 14.2376 537.548 9.73462C542.359 3.79407 549.711 0 557.949 0H669.539V26.2566H557.949Z" fill="#F69000"/>
<path d="M794.263 52.5131L781.135 65.648L846.769 131.283H813.948L761.436 78.7697H735.179V131.283H708.923V0H735.179V52.5131H761.436L813.948 0H846.769V0.00656414L794.263 52.5131Z" fill="#F69000"/>
<path d="M288.821 0H203.487C188.987 0 177.231 11.7564 177.231 26.2566V131.283H203.487V105.026H288.821V131.283H315.077V26.2566C315.077 11.7564 303.321 0 288.821 0ZM288.821 78.7697H203.487V26.2566H288.821V78.7697Z" fill="#F69000"/>
<path d="M997.744 0H886.154V105.026C886.154 119.533 897.91 131.283 912.41 131.283H1024V26.2566C1024 11.7564 1012.24 0 997.744 0ZM997.744 105.026H912.41V26.2566H997.744V105.026Z" fill="#F69000"/>
<path d="M492.308 0V131.283H466.051V26.2566L423.384 68.9235L380.718 26.2566V131.283H354.461V0H387.282L423.384 36.1028L459.487 0H492.308Z" fill="#F69000"/>
<path d="M137.846 26.2566L111.59 0H137.846V26.2566Z" fill="#53B1B1"/>
</g>
<defs>
<clipPath id="clip0_20_4">
<rect width="1024" height="131.283" fill="white"/>
</clipPath>
</defs>
</svg>
